<mxfile host="65bd71144e">
    <diagram id="_WM_MWXVVEHOaWmJXZX4" name="Page-1">
        <mxGraphModel dx="931" dy="771" grid="1" gridSize="10" guides="1" tooltips="1" connect="1" arrows="1" fold="1" page="1" pageScale="1" pageWidth="850" pageHeight="1100" math="0" shadow="0">
            <root>
                <mxCell id="0"/>
                <mxCell id="1" parent="0"/>
                <mxCell id="4" value="" style="edgeStyle=none;html=1;endArrow=none;endFill=0;fillColor=#1ba1e2;strokeColor=#006EAF;" parent="1" source="2" target="3" edge="1">
                    <mxGeometry relative="1" as="geometry"/>
                </mxCell>
                <mxCell id="2" value="Server" style="html=1;fillColor=#b1ddf0;strokeColor=#10739e;fontColor=#000000;" parent="1" vertex="1">
                    <mxGeometry x="440" y="10" width="120" height="50" as="geometry"/>
                </mxCell>
                <mxCell id="3" value="Server" style="html=1;fillColor=#b1ddf0;strokeColor=#10739e;fontColor=#000000;" parent="1" vertex="1">
                    <mxGeometry x="440" y="630" width="120" height="50" as="geometry"/>
                </mxCell>
                <mxCell id="11" value="" style="edgeStyle=none;html=1;endArrow=none;endFill=0;fillColor=#1ba1e2;strokeColor=#006EAF;" parent="1" source="5" target="6" edge="1">
                    <mxGeometry relative="1" as="geometry"/>
                </mxCell>
                <mxCell id="5" value="Database" style="html=1;fillColor=#b1ddf0;strokeColor=#10739e;fontColor=#000000;" parent="1" vertex="1">
                    <mxGeometry x="600" y="10" width="120" height="50" as="geometry"/>
                </mxCell>
                <mxCell id="6" value="Database" style="html=1;fillColor=#b1ddf0;strokeColor=#10739e;fontColor=#000000;" parent="1" vertex="1">
                    <mxGeometry x="600" y="630" width="120" height="50" as="geometry"/>
                </mxCell>
                <mxCell id="12" value="" style="edgeStyle=none;html=1;endArrow=none;endFill=0;fillColor=#1ba1e2;strokeColor=#006EAF;" parent="1" source="7" target="8" edge="1">
                    <mxGeometry relative="1" as="geometry"/>
                </mxCell>
                <mxCell id="7" value="Web server" style="html=1;fillColor=#b1ddf0;strokeColor=#10739e;fontColor=#000000;" parent="1" vertex="1">
                    <mxGeometry x="280" y="10" width="120" height="50" as="geometry"/>
                </mxCell>
                <mxCell id="8" value="Web server" style="html=1;fillColor=#b1ddf0;strokeColor=#10739e;fontColor=#000000;" parent="1" vertex="1">
                    <mxGeometry x="280" y="630" width="120" height="50" as="geometry"/>
                </mxCell>
                <mxCell id="13" value="" style="edgeStyle=none;html=1;endArrow=none;endFill=0;fillColor=#1ba1e2;strokeColor=#006EAF;" parent="1" source="9" target="10" edge="1">
                    <mxGeometry relative="1" as="geometry"/>
                </mxCell>
                <mxCell id="9" value="Client" style="html=1;fillColor=#b1ddf0;strokeColor=#10739e;fontColor=#000000;" parent="1" vertex="1">
                    <mxGeometry x="120" y="10" width="120" height="50" as="geometry"/>
                </mxCell>
                <mxCell id="10" value="Client" style="html=1;fillColor=#b1ddf0;strokeColor=#10739e;fontColor=#000000;" parent="1" vertex="1">
                    <mxGeometry x="120" y="630" width="120" height="50" as="geometry"/>
                </mxCell>
                <mxCell id="15" value="" style="endArrow=classic;html=1;fontColor=#000000;labelBackgroundColor=#CCFFCC;fillColor=#fad9d5;strokeColor=#ae4132;" parent="1" edge="1">
                    <mxGeometry relative="1" as="geometry">
                        <mxPoint x="180" y="120" as="sourcePoint"/>
                        <mxPoint x="340" y="120" as="targetPoint"/>
                    </mxGeometry>
                </mxCell>
                <mxCell id="16" value="DELETE request" style="edgeLabel;resizable=0;html=1;align=center;verticalAlign=middle;fontColor=#000000;labelBackgroundColor=#CCFFCC;" parent="15" connectable="0" vertex="1">
                    <mxGeometry relative="1" as="geometry"/>
                </mxCell>
                <mxCell id="17" value="" style="endArrow=classic;html=1;fontColor=#000000;labelBackgroundColor=#CCFFCC;fillColor=#fad9d5;strokeColor=#ae4132;" parent="1" edge="1">
                    <mxGeometry relative="1" as="geometry">
                        <mxPoint x="340" y="160" as="sourcePoint"/>
                        <mxPoint x="500" y="160" as="targetPoint"/>
                    </mxGeometry>
                </mxCell>
                <mxCell id="18" value="Forward request" style="edgeLabel;resizable=0;html=1;align=center;verticalAlign=middle;fontColor=#000000;labelBackgroundColor=#CCFFCC;" parent="17" connectable="0" vertex="1">
                    <mxGeometry relative="1" as="geometry"/>
                </mxCell>
                <mxCell id="19" value="" style="endArrow=classic;html=1;fontColor=#000000;labelBackgroundColor=#CCFFCC;fillColor=#fad9d5;strokeColor=#ae4132;dashed=1;" parent="1" edge="1">
                    <mxGeometry relative="1" as="geometry">
                        <mxPoint x="340" y="240" as="sourcePoint"/>
                        <mxPoint x="180" y="240" as="targetPoint"/>
                    </mxGeometry>
                </mxCell>
                <mxCell id="20" value="202 with deletion_id" style="edgeLabel;resizable=0;html=1;align=center;verticalAlign=middle;fontColor=#000000;labelBackgroundColor=#CCFFCC;" parent="19" connectable="0" vertex="1">
                    <mxGeometry relative="1" as="geometry"/>
                </mxCell>
                <mxCell id="21" value="" style="endArrow=classic;html=1;fontColor=#000000;labelBackgroundColor=#CCFFCC;fillColor=#fad9d5;strokeColor=#ae4132;dashed=1;" parent="1" edge="1">
                    <mxGeometry relative="1" as="geometry">
                        <mxPoint x="500" y="200" as="sourcePoint"/>
                        <mxPoint x="340" y="200" as="targetPoint"/>
                    </mxGeometry>
                </mxCell>
                <mxCell id="22" value="deletion_id" style="edgeLabel;resizable=0;html=1;align=center;verticalAlign=middle;fontColor=#000000;labelBackgroundColor=#CCFFCC;" parent="21" connectable="0" vertex="1">
                    <mxGeometry relative="1" as="geometry"/>
                </mxCell>
                <mxCell id="25" value="par" style="shape=umlFrame;whiteSpace=wrap;html=1;labelBackgroundColor=#CCFFCC;fontColor=#000000;strokeColor=#AE4132;dashed=1;fillColor=none;" parent="1" vertex="1">
                    <mxGeometry x="490" y="240" width="180" height="130" as="geometry"/>
                </mxCell>
                <mxCell id="26" value="" style="endArrow=classic;html=1;fontColor=#000000;labelBackgroundColor=#CCFFCC;fillColor=#fad9d5;strokeColor=#ae4132;" parent="1" edge="1">
                    <mxGeometry relative="1" as="geometry">
                        <mxPoint x="500" y="299.5" as="sourcePoint"/>
                        <mxPoint x="660" y="299.5" as="targetPoint"/>
                    </mxGeometry>
                </mxCell>
                <mxCell id="27" value="Cascade delete" style="edgeLabel;resizable=0;html=1;align=center;verticalAlign=middle;fontColor=#000000;labelBackgroundColor=#CCFFCC;" parent="26" connectable="0" vertex="1">
                    <mxGeometry relative="1" as="geometry"/>
                </mxCell>
                <mxCell id="28" value="" style="endArrow=classic;html=1;fontColor=#000000;labelBackgroundColor=#CCFFCC;fillColor=#fad9d5;strokeColor=#ae4132;" parent="1" edge="1">
                    <mxGeometry relative="1" as="geometry">
                        <mxPoint x="660" y="340" as="sourcePoint"/>
                        <mxPoint x="500" y="340" as="targetPoint"/>
                    </mxGeometry>
                </mxCell>
                <mxCell id="29" value="Report status" style="edgeLabel;resizable=0;html=1;align=center;verticalAlign=middle;fontColor=#000000;labelBackgroundColor=#CCFFCC;" parent="28" connectable="0" vertex="1">
                    <mxGeometry relative="1" as="geometry"/>
                </mxCell>
                <mxCell id="32" value="" style="endArrow=classic;html=1;fontColor=#000000;labelBackgroundColor=#CCFFCC;fillColor=#fad9d5;strokeColor=#ae4132;" parent="1" edge="1">
                    <mxGeometry relative="1" as="geometry">
                        <mxPoint x="180" y="400" as="sourcePoint"/>
                        <mxPoint x="340" y="400" as="targetPoint"/>
                    </mxGeometry>
                </mxCell>
                <mxCell id="33" value="&lt;span style=&quot;color: rgba(0, 0, 0, 0); font-family: monospace; font-size: 0px; text-align: start; background-color: rgb(42, 37, 47);&quot;&gt;%3CmxGraphModel%3E%3Croot%3E%3CmxCell%20id%3D%220%22%2F%3E%3CmxCell%20id%3D%221%22%20parent%3D%220%22%2F%3E%3CmxCell%20id%3D%222%22%20value%3D%22%26lt%3Bspan%20style%3D%26quot%3Bcolor%3A%20rgb(0%2C%200%2C%200)%3B%20font-family%3A%20Helvetica%3B%20font-size%3A%2011px%3B%20font-style%3A%20normal%3B%20font-variant-ligatures%3A%20normal%3B%20font-variant-caps%3A%20normal%3B%20font-weight%3A%20400%3B%20letter-spacing%3A%20normal%3B%20orphans%3A%202%3B%20text-align%3A%20center%3B%20text-indent%3A%200px%3B%20text-transform%3A%20none%3B%20widows%3A%202%3B%20word-spacing%3A%200px%3B%20-webkit-text-stroke-width%3A%200px%3B%20background-color%3A%20rgb(204%2C%20255%2C%20204)%3B%20text-decoration-thickness%3A%20initial%3B%20text-decoration-style%3A%20initial%3B%20text-decoration-color%3A%20initial%3B%20float%3A%20none%3B%20display%3A%20inline%20!important%3B%26quot%3B%26gt%3BForward%20request%26lt%3B%2Fspan%26gt%3B%22%20style%3D%22edgeLabel%3Bresizable%3D0%3Bhtml%3D1%3Balign%3Dcenter%3BverticalAlign%3Dmiddle%3BfontColor%3D%23000000%3B%22%20connectable%3D%220%22%20vertex%3D%221%22%20parent%3D%221%22%3E%3CmxGeometry%20x%3D%22425%22%20y%3D%22440%22%20as%3D%22geometry%22%2F%3E%3C%2FmxCell%3E%3C%2Froot%3E%3C%2FmxGraphModel%3E&lt;/span&gt;" style="edgeLabel;resizable=0;html=1;align=center;verticalAlign=middle;fontColor=#000000;" parent="32" connectable="0" vertex="1">
                    <mxGeometry relative="1" as="geometry"/>
                </mxCell>
                <mxCell id="34" value="" style="endArrow=classic;html=1;fontColor=#000000;labelBackgroundColor=#CCFFCC;fillColor=#fad9d5;strokeColor=#ae4132;" parent="1" edge="1">
                    <mxGeometry relative="1" as="geometry">
                        <mxPoint x="345" y="440" as="sourcePoint"/>
                        <mxPoint x="505" y="440" as="targetPoint"/>
                    </mxGeometry>
                </mxCell>
                <mxCell id="35" value="&lt;span style=&quot;color: rgb(0, 0, 0); font-family: Helvetica; font-size: 11px; font-style: normal; font-variant-ligatures: normal; font-variant-caps: normal; font-weight: 400; letter-spacing: normal; orphans: 2; text-align: center; text-indent: 0px; text-transform: none; widows: 2; word-spacing: 0px; -webkit-text-stroke-width: 0px; background-color: rgb(204, 255, 204); text-decoration-thickness: initial; text-decoration-style: initial; text-decoration-color: initial; float: none; display: inline !important;&quot;&gt;Forward request&lt;/span&gt;" style="edgeLabel;resizable=0;html=1;align=center;verticalAlign=middle;fontColor=#000000;" parent="34" connectable="0" vertex="1">
                    <mxGeometry relative="1" as="geometry"/>
                </mxCell>
                <mxCell id="36" value="" style="endArrow=classic;html=1;dashed=1;labelBackgroundColor=#CCFFCC;fontColor=#000000;fillColor=#fa6800;strokeColor=#C73500;" parent="1" edge="1">
                    <mxGeometry relative="1" as="geometry">
                        <mxPoint x="500" y="480" as="sourcePoint"/>
                        <mxPoint x="180" y="480" as="targetPoint"/>
                    </mxGeometry>
                </mxCell>
                <mxCell id="37" value="Deletion status" style="edgeLabel;resizable=0;html=1;align=center;verticalAlign=middle;dashed=1;labelBackgroundColor=#CCFFCC;strokeColor=#CCFFCC;fontColor=#000000;" parent="36" connectable="0" vertex="1">
                    <mxGeometry relative="1" as="geometry"/>
                </mxCell>
                <mxCell id="40" value="&lt;span style=&quot;color: rgb(0, 0, 0); font-family: Helvetica; font-size: 11px; font-style: normal; font-variant-ligatures: normal; font-variant-caps: normal; font-weight: 400; letter-spacing: normal; orphans: 2; text-align: center; text-indent: 0px; text-transform: none; widows: 2; word-spacing: 0px; -webkit-text-stroke-width: 0px; background-color: rgb(204, 255, 204); text-decoration-thickness: initial; text-decoration-style: initial; text-decoration-color: initial; float: none; display: inline !important;&quot;&gt;GET status&lt;/span&gt;" style="edgeLabel;resizable=0;html=1;align=center;verticalAlign=middle;fontColor=#000000;" parent="1" connectable="0" vertex="1">
                    <mxGeometry x="260" y="400" as="geometry"/>
                </mxCell>
                <mxCell id="41" value="" style="endArrow=classic;html=1;fontColor=#000000;labelBackgroundColor=#CCFFCC;fillColor=#fad9d5;strokeColor=#ae4132;" parent="1" edge="1">
                    <mxGeometry relative="1" as="geometry">
                        <mxPoint x="180" y="520" as="sourcePoint"/>
                        <mxPoint x="340" y="520" as="targetPoint"/>
                    </mxGeometry>
                </mxCell>
                <mxCell id="42" value="GET deleted resource" style="edgeLabel;resizable=0;html=1;align=center;verticalAlign=middle;fontColor=#000000;labelBackgroundColor=#CCFFCC;" parent="41" connectable="0" vertex="1">
                    <mxGeometry relative="1" as="geometry"/>
                </mxCell>
                <mxCell id="43" value="" style="endArrow=classic;html=1;fontColor=#000000;labelBackgroundColor=#CCFFCC;fillColor=#fad9d5;strokeColor=#ae4132;" parent="1" edge="1">
                    <mxGeometry relative="1" as="geometry">
                        <mxPoint x="340" y="560" as="sourcePoint"/>
                        <mxPoint x="500" y="560" as="targetPoint"/>
                    </mxGeometry>
                </mxCell>
                <mxCell id="44" value="Forward request" style="edgeLabel;resizable=0;html=1;align=center;verticalAlign=middle;fontColor=#000000;labelBackgroundColor=#CCFFCC;" parent="43" connectable="0" vertex="1">
                    <mxGeometry relative="1" as="geometry"/>
                </mxCell>
                <mxCell id="45" value="" style="endArrow=classic;html=1;dashed=1;labelBackgroundColor=#CCFFCC;fontColor=#000000;fillColor=#fa6800;strokeColor=#C73500;" parent="1" edge="1">
                    <mxGeometry relative="1" as="geometry">
                        <mxPoint x="500" y="600" as="sourcePoint"/>
                        <mxPoint x="180" y="600" as="targetPoint"/>
                    </mxGeometry>
                </mxCell>
                <mxCell id="46" value="410 (Gone)" style="edgeLabel;resizable=0;html=1;align=center;verticalAlign=middle;dashed=1;labelBackgroundColor=#CCFFCC;strokeColor=#CCFFCC;fontColor=#000000;" parent="45" connectable="0" vertex="1">
                    <mxGeometry relative="1" as="geometry"/>
                </mxCell>
            </root>
        </mxGraphModel>
    </diagram>
</mxfile>
